<svg width="100" height="96" viewBox="0 0 100 96" fill="none" xmlns="http://www.w3.org/2000/svg">
<path d="M95.7359 54.0051C68.6512 54.0051 62.6769 51.4341 55.8195 46.3115C65.8402 33.9494 87.3625 6.23668 87.5855 5.94918C88.3578 4.95471 88.141 3.54937 87.1023 2.81062C86.0633 2.07076 84.5953 2.27862 83.823 3.27271C83.6008 3.55984 62.2 31.1159 52.1855 43.475C41.3512 34.1453 38.4621 11.9351 38.4336 11.7066C38.3398 10.9544 37.6734 10.3884 36.882 10.3884H34.5383C34.3863 10.3884 34.2352 10.4097 34.0894 10.4516C33.3496 10.6636 31.9902 11.0542 29.0996 23.0787C26.3625 23.4331 19.8648 24.9981 16.5746 31.8872L3.78867 36.4019C3.28046 36.5814 2.90546 37.0005 2.79804 37.5086C2.76679 37.6559 2.06952 41.1507 4.93124 44.499C8.07265 48.1744 14.082 50.1465 22.809 50.3697C22.6961 52.0614 22.6098 54.9443 22.9066 58.5816C22.6316 58.0253 22.0144 57.7751 22.0144 57.7751C21.5601 57.5759 20.7668 57.6234 20.4383 58.3086C20.082 59.0523 20.5644 59.751 20.6398 60.0198C20.7148 60.289 20.5633 60.5432 20.5633 60.5432L19.3715 63.0294L18.1797 65.5155C18.1797 65.5155 18.0769 65.7918 17.8148 65.913C17.5531 66.0337 16.6851 66.1391 16.3285 66.8831C16 67.5688 16.4801 68.1752 16.934 68.3745C16.934 68.3745 18.0047 68.8829 18.7629 68.1524C18.7629 68.1524 18.7961 68.1146 18.843 68.1352C18.8902 68.1561 18.882 68.2047 18.882 68.2047C18.7984 69.2306 19.8992 69.6766 19.8992 69.6766C20.3531 69.8751 21.1465 69.8284 21.475 69.1427C21.8312 68.3987 21.3492 67.7004 21.2738 67.4312C21.1988 67.1624 21.3504 66.9078 21.3504 66.9078L22.5418 64.4216L23.3773 62.6779C23.4316 63.0425 23.4894 63.4107 23.5519 63.7838C24.8773 71.713 28.4633 83.1961 38.0191 92.8727C38.3266 93.1838 38.7402 93.3408 39.1547 93.3408C39.5398 93.3408 39.9258 93.2051 40.2277 92.9318C40.8547 92.3643 40.8828 91.4181 40.2898 90.818C30.6383 81.0449 27.3258 69.1992 26.2844 60.6288C26.8316 60.6707 27.5195 60.7043 28.3305 60.7043C33.7652 60.7043 44.6008 59.1947 53.8715 48.6537C61.2656 54.2085 67.4723 56.996 95.7355 56.996C96.5984 56.996 97.298 56.3264 97.298 55.5006C97.298 54.6747 96.5988 54.0051 95.7359 54.0051ZM25.9066 56.0816C25.7184 51.8693 26.0512 49.1659 26.0617 49.0863C26.1187 48.6601 25.9816 48.2309 25.6851 47.9082C25.3887 47.5856 24.9609 47.4005 24.5121 47.4005C13.7891 47.4005 9.28906 44.8254 7.40234 42.6656C6.12538 41.2038 5.85351 39.7349 5.82226 38.8724L18.2824 34.4721C18.6922 34.327 19.0199 34.0249 19.1863 33.6387C22.3789 26.2169 30.0738 25.972 30.3941 25.9656C31.1168 25.9556 31.7375 25.4725 31.8961 24.7977C33.7234 17.0076 34.857 14.2803 35.3324 13.3793H35.5203C36.3285 18.5266 39.8867 37.0424 50.2402 45.8172C39.9582 57.4544 27.716 56.3238 25.9066 56.0816Z" fill="#00B2B1"/>
</svg>
